Coordinates
version=1
nRows=12
nColumns=46
inDegrees=yes

Units are S.I. units (second, meters, Newtons, ...)
Angles are in degrees.

endheader
time	pelvis_tilt	pelvis_list	pelvis_rotation	pelvis_tx	pelvis_ty	pelvis_tz	bb_angle	bb_tx	bb_ty	bb_tz	hip_flexion_r	hip_adduction_r	hip_rotation_r	knee_angle_r	knee_angle_r_beta	ankle_angle_r	subtalar_angle_r	mtp_angle_r	crank_angle_r	hip_flexion_l	hip_adduction_l	hip_rotation_l	knee_angle_l	knee_angle_l_beta	ankle_angle_l	subtalar_angle_l	mtp_angle_l	crank_angle_l	lumbar_extension	lumbar_bending	lumbar_rotation	arm_flex_r	arm_add_r	arm_rot_r	elbow_flex_r	pro_sup_r	wrist_flex_r	wrist_dev_r	arm_flex_l	arm_add_l	arm_rot_l	elbow_flex_l	pro_sup_l	wrist_flex_l	wrist_dev_l
      2.50000000	    -26.50897084	     -7.78120489	     -0.81387693	      0.35234047	      1.06419000	     -0.19735533	      0.00000000	      0.50000000	      0.00000000	      0.25000000	     77.63043679	      3.67537566	     -0.54472719	    113.87546170	      1.98750174	      1.24085682	     -4.87763364	      0.00000000	      0.00000000	     32.99363749	    -14.35370757	     -8.54348297	     23.03344414	      0.40200944	    -19.58099980	     -0.50856326	      0.00000000	      0.00000000	    -46.84593864	      1.95179588	     -3.17864483	     49.55407493	    -13.48882724	     38.36427180	     71.79767815	     52.12043383	      0.00000000	      0.00000000	     27.98349565	    -24.65009165	      8.87778077	     93.39725030	     51.15847814	      0.00000000	      0.00000000
      2.50500000	    -26.85807111	     -7.90990023	     -1.21321061	      0.35127505	      1.06723351	     -0.19624290	      0.00000000	      0.50000000	      0.00000000	      0.25000000	     78.29295004	      4.14900585	     -0.71191887	    113.40103293	      1.97922140	      2.11394114	     -5.00195412	      0.00000000	      0.00000000	     32.46899581	    -14.61095179	     -9.11268575	     21.55876823	      0.37627149	    -22.19506847	     -0.91787677	      0.00000000	      0.00000000	    -47.04572934	      1.93672103	     -2.47397143	     49.81607779	    -13.94239815	     38.56921981	     72.32446416	     52.23623590	      0.00000000	      0.00000000	     28.56832612	    -24.23228912	      8.73370165	     92.95321481	     51.10018307	      0.00000000	      0.00000000
      2.51000000	    -27.42998780	     -8.17220401	     -1.53096993	      0.34972998	      1.06981139	     -0.19521950	      0.00000000	      0.50000000	      0.00000000	      0.25000000	     79.17788770	      4.58773761	     -1.04824364	    112.84832212	      1.96957478	      3.02155066	     -5.26581091	      0.00000000	      0.00000000	     32.51478604	    -15.04272318	     -9.60581047	     20.61919390	      0.35987282	    -24.24125933	     -0.48001177	      0.00000000	      0.00000000	    -47.05738255	      2.17117923	     -1.94508479	     50.27632772	    -13.88537432	     38.55219111	     72.62913942	     52.27852359	      0.00000000	      0.00000000	     29.03293341	    -24.32672014	      8.58185522	     92.92209405	     51.08276306	      0.00000000	      0.00000000
      2.51500000	    -27.84124126	     -8.19148758	     -1.89292162	      0.34837639	      1.07299464	     -0.19434299	      0.00000000	      0.50000000	      0.00000000	      0.25000000	     79.82435112	      4.98939790	     -1.12478990	    112.19781561	      1.95822130	      3.84613240	     -5.47553379	      0.00000000	      0.00000000	     32.10791819	    -15.12634564	    -10.02739516	     19.11959118	      0.33369982	    -27.19626561	     -1.07938011	      0.00000000	      0.00000000	    -47.23825484	      2.07781494	     -0.82623455	     50.24059942	    -15.17319960	     38.57168175	     74.12741091	     52.55264000	      0.00000000	      0.00000000	     30.40130394	    -23.34765486	      9.01827996	     91.60008771	     51.02608177	      0.00000000	      0.00000000
      2.52000000	    -28.33502264	     -8.29311687	     -2.33308503	      0.34710837	      1.07607553	     -0.19334200	      0.00000000	      0.50000000	      0.00000000	      0.25000000	     80.50678519	      5.43789208	     -1.29819223	    111.45155305	      1.94519656	      4.59364079	     -5.74652632	      0.00000000	      0.00000000	     31.91521242	    -15.42903514	    -10.76276692	     17.91934134	      0.31275151	    -29.70466761	     -0.98772708	      0.00000000	      0.00000000	    -47.33333504	      2.09265119	     -0.24743053	     50.58543132	    -15.14607399	     38.42957443	     74.37074744	     52.57510774	      0.00000000	      0.00000000	     30.78725040	    -23.28453805	      8.93776185	     91.53708141	     51.03005411	      0.00000000	      0.00000000
      2.52500000	    -28.82797539	     -8.34477104	     -2.68240536	      0.34574685	      1.07920377	     -0.19245308	      0.00000000	      0.50000000	      0.00000000	      0.25000000	     81.12990200	      5.81437186	     -1.41732557	    110.64382340	      1.93109902	      5.33061604	     -6.08799648	      0.00000000	      0.00000000	     31.74800214	    -15.60021644	    -11.25340085	     16.68425400	      0.29119517	    -32.34148261	     -1.11212553	      0.00000000	      0.00000000	    -47.44204138	      2.13096961	      0.24703603	     51.00282418	    -15.22832447	     38.38517887	     74.73526376	     52.62730274	      0.00000000	      0.00000000	     31.27613560	    -23.06451024	      8.76872336	     91.32432978	     51.00409606	      0.00000000	      0.00000000
      2.53000000	    -29.41092638	     -8.52887699	     -2.98260214	      0.34425109	      1.08204812	     -0.19141888	      0.00000000	      0.50000000	      0.00000000	      0.25000000	     81.79467952	      6.23505000	     -1.65931619	    109.76005590	      1.91567436	      6.26194234	     -6.26865045	      0.00000000	      0.00000000	     31.87942356	    -15.96342569	    -11.74000151	     15.81336439	      0.27599527	    -34.52785087	     -0.75051582	      0.00000000	      0.00000000	    -47.46151331	      2.30348221	      0.68119935	     51.46488921	    -15.08620271	     38.33441321	     75.01418550	     52.66006379	      0.00000000	      0.00000000	     31.71994272	    -23.06168242	      8.60364944	     91.29715066	     50.98841824	      0.00000000	      0.00000000
      2.53500000	    -29.97359926	     -8.62846263	     -3.33338596	      0.34289776	      1.08501264	     -0.19049324	      0.00000000	      0.50000000	      0.00000000	      0.25000000	     82.37614713	      6.62841709	     -1.81618127	    108.77220342	      1.89843308	      7.07564688	     -6.40805958	      0.00000000	      0.00000000	     31.88636881	    -16.21530282	    -12.13291924	     14.83584041	      0.25893426	    -36.79060145	     -0.51256052	      0.00000000	      0.00000000	    -47.48376287	      2.37032466	      1.17300662	     51.85189478	    -15.04155180	     38.30905773	     75.29016025	     52.69675772	      0.00000000	      0.00000000	     32.04331958	    -22.94671770	      8.41592763	     91.20474912	     50.96248616	      0.00000000	      0.00000000
      2.54000000	    -30.52300109	     -8.74287335	     -3.65536742	      0.34176146	      1.08788572	     -0.18960293	      0.00000000	      0.50000000	      0.00000000	      0.25000000	     82.85809422	      6.99654284	     -2.00328281	    107.71680934	      1.88001298	      7.98496429	     -6.62398281	      0.00000000	      0.00000000	     31.92312885	    -16.48188364	    -12.50460226	     14.09158634	      0.24594458	    -38.23277916	     -0.31959307	      0.00000000	      0.00000000	    -47.50310207	      2.43298747	      1.55648251	     52.24127474	    -14.99259032	     38.26774899	     75.56527819	     52.73102689	      0.00000000	      0.00000000	     32.36439810	    -22.80643013	      8.22417996	     91.12180313	     50.93490170	      0.00000000	      0.00000000
      2.54500000	    -31.04732533	     -8.79089695	     -3.90865498	      0.34045337	      1.09048465	     -0.18870871	      0.00000000	      0.50000000	      0.00000000	      0.25000000	     83.30849581	      7.28839157	     -2.11254777	    106.65020948	      1.86139730	      8.79579434	     -6.78429308	      0.00000000	      0.00000000	     32.01582150	    -16.66019641	    -12.72127233	     13.63448133	      0.23796659	    -38.88635461	     -0.10031301	      0.00000000	      0.00000000	    -47.49286246	      2.49506570	      1.86062496	     52.57393826	    -14.95922683	     38.22279121	     75.81614727	     52.76161604	      0.00000000	      0.00000000	     32.65538041	    -22.69237433	      8.04690444	     91.05497790	     50.90951978	      0.00000000	      0.00000000
      2.55000000	    -31.62876544	     -8.84995526	     -4.26845412	      0.33918356	      1.09288177	     -0.18796238	      0.00000000	      0.50000000	      0.00000000	      0.25000000	     83.74787222	      7.65644782	     -2.19914167	    105.48671667	      1.84109052	      9.66963245	     -6.89505035	      0.00000000	      0.00000000	     32.16075563	    -16.90016396	    -12.88924875	     13.38667586	      0.23364157	    -39.14597347	      0.11925740	      0.00000000	      0.00000000	    -47.42617662	      2.54689152	      2.26894476	     52.94158635	    -14.91513017	     38.18048002	     76.11278815	     52.79909433	      0.00000000	      0.00000000	     32.92258253	    -22.54266446	      7.83807231	     90.96852403	     50.87853624	      0.00000000	      0.00000000
      2.55500000	    -32.22547396	     -8.90331266	     -4.58237636	      0.33792843	      1.09500204	     -0.18712534	      0.00000000	      0.50000000	      0.00000000	      0.25000000	     84.15614855	      7.99254275	     -2.29629003	    104.27341429	      1.81991440	     10.53704439	     -6.99676921	      0.00000000	      0.00000000	     32.40597340	    -17.12709629	    -13.02415391	     13.36712772	      0.23330039	    -39.20496518	      0.21041001	      0.00000000	      0.00000000	    -47.32612748	      2.60681607	      2.66189914	     53.23595387	    -14.91563180	     38.15578411	     76.41799895	     52.84102655	      0.00000000	      0.00000000	     33.16107029	    -22.34297541	      7.62008197	     90.86341981	     50.84453850	      0.00000000	      0.00000000
